<?xml version="1.0" encoding="UTF-8" standalone="no"?><!DOCTYPE svg PUBLIC "-//W3C//DTD SVG 1.1//EN" "http://www.w3.org/Graphics/SVG/1.1/DTD/svg11.dtd"><svg width="834px" height="1109px" version="1.1" xmlns="http://www.w3.org/2000/svg" xmlns:xlink="http://www.w3.org/1999/xlink" xml:space="preserve" xmlns:serif="http://www.serif.com/" style="fill-rule:evenodd;clip-rule:evenodd;stroke-linecap:round;stroke-linejoin:round;stroke-miterlimit:2;"><g transform="matrix(1,0,0,1,-958.280417,-281.016515)"><g transform="matrix(1,0,0,1.700563,-22.225044,-240.670108)"><path d="M1667,506L1667,739C1667,827 1546,898 1397,898C1248,898 1127,827 1127,739L1127,506C1127,418 1248,347 1397,347C1546,347 1667,418 1667,506Z" style="fill:none;stroke:black;stroke-width:97px;"/></g><g transform="matrix(1.182965,0,0,1,-220.027539,2.222504)"><path d="M1701,845L1701,1273C1701,1336 1657,1387 1604,1387L1092,1387C1039,1387 996,1336 996,1273L996,845C996,782 1039,731 1092,731L1604,731C1657,731 1701,782 1701,845ZM1309,1062L1309,1170C1309,1183 1318,1193 1329,1193L1368,1193C1379,1193 1388,1183 1388,1170L1388,1062C1408,1047 1421,1020 1421,990C1421,943 1388,905 1348,905C1308,905 1276,943 1276,990C1276,1020 1289,1047 1309,1062Z"/></g></g></svg>